# Blender v2.80 (sub 75) OBJ File: 'stone_asset_mapper.blend'
# www.blender.org
mtllib wall_based_pnbmk_mask_2.mtl
o pnbmk_mask_Cube.006
v 2.012872 -0.142616 -1.554872
v 2.027539 -0.141280 0.834660
v -1.962252 -0.145089 -1.530471
v -1.947585 -0.143753 0.859060
v 5.150622 -0.141715 -3.467357
v 5.188530 -0.138262 2.708481
v -5.123243 -0.148107 -3.404293
v -5.085336 -0.144654 2.771545
vt 0.693428 0.420952
vt 0.693428 0.186124
vt 0.999922 0.000078
vt 0.999922 0.606998
vt 0.306572 0.420952
vt 0.000078 0.606998
vt 0.306572 0.186124
vt 0.000078 0.000078
vn -0.0006 1.0000 -0.0006
usemtl mask
s off
f 1/1/1 2/2/1 6/3/1 5/4/1
f 3/5/1 1/1/1 5/4/1 7/6/1
f 2/2/1 4/7/1 8/8/1 6/3/1
f 4/7/1 3/5/1 7/6/1 8/8/1
